# xmcd
# 
# Track frame offsets:
#     150
#     13950
#     27933
#     38401
#     52138
#     63915
#     78610
#     93193
#     105114
#     117303
#     130963
#     141976
#     154834
#     166087
#     177393
#     192774
#     202291
#     215702
#     226393
#     239514
#     251137
#     263588
#     273618
#     284486
#     297756
# 
# Disc length: 4136
# 
# Revision: 3
# Processed by: cddbd v1.5.2PL0 Copyright (c) Steve Scherf et al.
# Submitted via: fre:ac v1.0.31
# 
DISCID=77102619
DTITLE=Blues - Screaming And Crying Disc 1
DYEAR=2012
DGENRE=Blues
TTITLE0=B.B. 'Blues Boy' King and His Orchestra - You Upset Me Baby
TTITLE1=Johnny Otis Orchectra feat. Pete Lewis and His Guitar - Midnight In The Barrel House
TTITLE2=Buddy Guy - First Time I Met The Blues
TTITLE3=James Cotton feat. Pat Hare - Cotton Crop Blues
TTITLE4=Little Milton - Lookin' For My Baby
TTITLE5=Muddy Waters - Rock Me
TTITLE6=Freddy King - The Stumble
TTITLE7=Otis Rush and His Band - All Your Love (I Miss Loving)
TTITLE8=Clarence Samuels feat. Johnny Copeland - Chicken-Hearted Woman
TTITLE9=Guitar Slim and His Band - The Story Of My Life
TTITLE10=Clarence 'Gatemouth' Brown His Guitar and Orchestra - Atomic Energy
TTITLE11=Bo Diddley - Pretty Thing
TTITLE12=John Lee Hooker - You've Taken My Woman
TTITLE13=Elmore James and His Broomdusters - Coming Home
TTITLE14=Johnny 'Guitar' Watson - Three Hours Past Midnight
TTITLE15=Chuck Berry - Bye Bye Johnny
TTITLE16=Tiny Grimes His Guitar and Rocking Highlanders - Tiny's Boogie
TTITLE17=T-Bone Walker and His Orchestra - Travelin' Blues
TTITLE18=Albert King - I Walked All Night Long
TTITLE19=Pete 'Guitar' Lewis - Louisiana Hop
TTITLE20=Morris Pejoe - Screaming And Crying
TTITLE21=Earl Hooker - Blues In D Natural
TTITLE22=Poppa Hop and His Orchestra (Hop Wilson) - My Woman Has A Black Cat Bone
TTITLE23=Magic Sam - All Your Love
TTITLE24=Eddie Taylor - Don't Knock At My Door
EXTD=
EXTT0=
EXTT1=
EXTT2=
EXTT3=
EXTT4=
EXTT5=
EXTT6=
EXTT7=
EXTT8=
EXTT9=
EXTT10=
EXTT11=
EXTT12=
EXTT13=
EXTT14=
EXTT15=
EXTT16=
EXTT17=
EXTT18=
EXTT19=
EXTT20=
EXTT21=
EXTT22=
EXTT23=
EXTT24=
PLAYORDER=
